<svg width="140" height="140" viewBox="0 0 140 140" fill="none" xmlns="http://www.w3.org/2000/svg">
<path d="M104.999 0H35.0009C15.753 0 0.00170898 15.7513 0.00170898 34.9991V105.001C0.00170898 124.244 15.753 140 35.0009 140H104.999C124.247 140 139.998 124.244 139.998 105.001V34.9991C139.998 15.7513 124.247 0 104.999 0ZM128.331 105.001C128.331 117.863 117.869 128.333 104.999 128.333H35.0009C22.137 128.333 11.6687 117.863 11.6687 105.001V34.9991C11.6687 22.1335 22.137 11.6669 35.0009 11.6669H104.999C117.869 11.6669 128.331 22.1335 128.331 34.9991V105.001Z" fill="white"/>
<path d="M107.921 40.8317C112.754 40.8317 116.671 36.9143 116.671 32.0819C116.671 27.2496 112.754 23.3322 107.921 23.3322C103.089 23.3322 99.1716 27.2496 99.1716 32.0819C99.1716 36.9143 103.089 40.8317 107.921 40.8317Z" fill="white"/>
<path d="M70.0001 34.9991C50.6665 34.9991 35.001 50.6664 35.001 69.9983C35.001 89.323 50.6665 105.001 70.0001 105.001C89.3283 105.001 104.999 89.323 104.999 69.9983C104.999 50.6664 89.3283 34.9991 70.0001 34.9991ZM70.0001 93.3339C57.115 93.3339 46.6679 82.8868 46.6679 69.9983C46.6679 57.1098 57.115 46.6661 70.0001 46.6661C82.8852 46.6661 93.3323 57.1098 93.3323 69.9983C93.3323 82.8868 82.8852 93.3339 70.0001 93.3339Z" fill="white"/>
</svg>
