<svg width="100" height="76" viewBox="0 0 100 76" fill="none" xmlns="http://www.w3.org/2000/svg">
<path d="M65.3923 33.3966L43.2998 21.3088C42.0295 20.6137 40.5281 20.6396 39.283 21.3773C38.0371 22.1158 37.2939 23.4205 37.2939 24.8685V48.837C37.2939 50.2782 38.0326 51.5805 39.2701 52.3198C39.9162 52.7057 40.6326 52.8997 41.3506 52.8997C42.0223 52.8987 42.6833 52.7306 43.274 52.4106L65.3671 40.531C66.0106 40.185 66.5488 39.6717 66.9248 39.0453C67.3008 38.4188 67.5006 37.7024 67.5032 36.9718C67.5062 36.241 67.3116 35.5229 66.94 34.8936C66.5684 34.2642 66.0336 33.747 65.3923 33.3966ZM43.1541 45.8218V27.9082L59.6657 36.9427L43.1541 45.8218Z" fill="white"/>
<path d="M99.2637 17.8762L99.2592 17.8305C99.1744 17.0256 98.3315 9.86633 94.851 6.22476C90.828 1.94159 86.2669 1.42128 84.0736 1.17187C83.9078 1.15357 83.7422 1.13372 83.5769 1.1123L83.4021 1.09413C70.1823 0.132812 50.217 0.00156249 50.0172 0.000781244L49.9996 0L49.982 0.000781244C49.7822 0.00156249 29.817 0.132812 16.4778 1.09413L16.3016 1.1123C16.1596 1.13144 16.0032 1.14901 15.8331 1.16894C13.6649 1.41893 9.15286 1.94022 5.11851 6.37807C1.8035 9.98078 0.845306 16.9868 0.746869 17.7741L0.735541 17.8762C0.705659 18.2112 0 26.1848 0 34.1894V41.6721C0 49.677 0.705659 57.6503 0.735541 57.9861L0.740814 58.0363C0.825579 58.8283 1.66776 65.8565 5.13219 69.4995C8.91497 73.6391 13.6977 74.1869 16.2704 74.4814C16.677 74.5279 17.0272 74.5676 17.2659 74.6096L17.4971 74.6416C25.1303 75.368 49.0627 75.7256 50.0773 75.7402L50.108 75.741L50.1385 75.7402C50.3383 75.7394 70.3028 75.6082 83.523 74.6469L83.6976 74.6287C83.8648 74.6064 84.0525 74.5867 84.2583 74.5652C86.4146 74.3363 90.902 73.8611 94.8807 69.4832C98.1957 65.8801 99.1547 58.874 99.2523 58.0874L99.2637 57.9853C99.2936 57.6495 100 49.6768 100 41.6721V34.1894C99.9992 26.1846 99.2936 18.212 99.2637 17.8762ZM94.1391 41.6721C94.1391 49.0811 93.4922 56.7111 93.4311 57.4115C93.1825 59.3411 92.1713 63.7735 90.5563 65.5292C88.0661 68.2688 85.5081 68.5405 83.6404 68.7381C83.4321 68.7595 83.2241 68.7828 83.0163 68.8082C70.2295 69.7328 51.0182 69.8746 50.1332 69.8801C49.1406 69.8657 25.5582 69.5047 18.1579 68.8174C17.7786 68.7555 17.3688 68.7082 16.9372 68.6594C14.7468 68.4084 11.7483 68.0651 9.44289 65.5292L9.3886 65.4712C7.8017 63.8179 6.81987 59.6728 6.57026 57.4343C6.52378 56.905 5.86011 49.1848 5.86011 41.6721V34.1894C5.86011 26.789 6.50561 19.1672 6.56811 18.4524C6.86499 16.1796 7.89486 12.0155 9.44289 10.3323C12.0093 7.50951 14.7155 7.19682 16.5053 6.98998C16.6762 6.97006 16.8356 6.9519 16.9829 6.93276C29.9558 6.00347 49.3053 5.86538 49.9996 5.86011C50.6939 5.8646 70.0366 6.00347 82.8943 6.93276C83.0521 6.95268 83.2245 6.97241 83.4099 6.99389C85.2509 7.20365 88.0333 7.52103 90.587 10.2446L90.6104 10.2698C92.1975 11.9231 93.1793 16.1407 93.4288 18.4241C93.4731 18.9239 94.1391 26.6607 94.1391 34.1894V41.6721Z" fill="white"/>
</svg>
