<svg width="50" height="50" viewBox="0 0 50 50" fill="none" xmlns="http://www.w3.org/2000/svg">
<path d="M25 0C20.0555 0 15.222 1.46622 11.1108 4.21326C6.99953 6.96029 3.79521 10.8648 1.90302 15.4329C0.0108322 20.0011 -0.484251 25.0277 0.480379 29.8773C1.44501 34.7268 3.82603 39.1813 7.32234 42.6777C10.8187 46.174 15.2732 48.555 20.1227 49.5196C24.9723 50.4842 29.9989 49.9892 34.5671 48.097C39.1352 46.2048 43.0397 43.0005 45.7867 38.8892C48.5338 34.778 50 29.9445 50 25C50 18.3696 47.3661 12.0107 42.6777 7.32233C37.9893 2.63392 31.6304 0 25 0ZM36.3636 27.2727H27.2727V36.3636C27.2727 36.9664 27.0333 37.5445 26.6071 37.9707C26.1808 38.3969 25.6028 38.6364 25 38.6364C24.3972 38.6364 23.8192 38.3969 23.3929 37.9707C22.9667 37.5445 22.7273 36.9664 22.7273 36.3636V27.2727H13.6364C13.0336 27.2727 12.4555 27.0333 12.0293 26.6071C11.6031 26.1808 11.3636 25.6028 11.3636 25C11.3636 24.3972 11.6031 23.8192 12.0293 23.3929C12.4555 22.9667 13.0336 22.7273 13.6364 22.7273H22.7273V13.6364C22.7273 13.0336 22.9667 12.4555 23.3929 12.0293C23.8192 11.6031 24.3972 11.3636 25 11.3636C25.6028 11.3636 26.1808 11.6031 26.6071 12.0293C27.0333 12.4555 27.2727 13.0336 27.2727 13.6364V22.7273H36.3636C36.9664 22.7273 37.5445 22.9667 37.9707 23.3929C38.3969 23.8192 38.6364 24.3972 38.6364 25C38.6364 25.6028 38.3969 26.1808 37.9707 26.6071C37.5445 27.0333 36.9664 27.2727 36.3636 27.2727Z" fill="#22356F"/>
</svg>
